<svg width="48" height="43" viewBox="0 0 48 43" fill="none" xmlns="http://www.w3.org/2000/svg">
<rect x="4" y="4" width="42" height="33.5465" fill="white"/>
<path d="M25.1833 18.1704C25.1833 19.6014 24.3083 20.4251 22.7667 20.4251H20.7417V15.9158H22.775C24.3083 15.9158 25.1833 16.7311 25.1833 18.1704ZM29.1417 23.3786C29.1417 24.0692 29.7417 24.5184 30.6833 24.5184C31.8833 24.5184 32.7833 23.7613 32.7833 22.6964V22.0558L30.825 22.1806C29.7167 22.2554 29.1417 22.6631 29.1417 23.3786ZM48 6.57261V35.8583C48 38.0631 46.2083 39.8518 44 39.8518H4C1.79167 39.8518 0 38.0631 0 35.8583V6.57261C0 4.36786 1.79167 2.5791 4 2.5791H44C46.2083 2.5791 48 4.36786 48 6.57261ZM10.65 16.4066C11.35 16.4649 12.05 16.0572 12.4917 15.5414C12.925 15.0089 13.2083 14.2934 13.1333 13.5696C12.5167 13.5945 11.75 13.9772 11.3083 14.5097C10.9083 14.9673 10.5667 15.7078 10.65 16.4066ZM15.7 22.6049C15.6833 22.5882 14.0667 21.9726 14.05 20.1089C14.0333 18.5531 15.325 17.8043 15.3833 17.7627C14.65 16.6812 13.5167 16.5647 13.125 16.5397C12.1083 16.4815 11.2417 17.1138 10.7583 17.1138C10.2667 17.1138 9.53333 16.5647 8.73333 16.5813C7.69167 16.598 6.71667 17.1887 6.19167 18.1288C5.1 20.0091 5.90833 22.7879 6.96667 24.3188C7.48333 25.0759 8.10833 25.9078 8.925 25.8746C9.7 25.8413 10.0083 25.3754 10.9417 25.3754C11.8833 25.3754 12.15 25.8746 12.9667 25.8662C13.8167 25.8496 14.3417 25.1091 14.8667 24.352C15.4417 23.4868 15.6833 22.6548 15.7 22.6049ZM26.9833 18.1621C26.9833 15.949 25.4417 14.4348 23.2417 14.4348H18.975V25.783H20.7417V21.906H23.1833C25.4167 21.906 26.9833 20.3752 26.9833 18.1621ZM34.4833 20.1339C34.4833 18.4949 33.1667 17.4383 31.15 17.4383C29.275 17.4383 27.8917 18.5115 27.8417 19.9758H29.4333C29.5667 19.277 30.2167 18.8194 31.1 18.8194C32.1833 18.8194 32.7833 19.3186 32.7833 20.2504V20.8744L30.5833 21.0075C28.5333 21.1323 27.425 21.9726 27.425 23.4285C27.425 24.9011 28.5667 25.8746 30.2083 25.8746C31.3167 25.8746 32.3417 25.3171 32.8083 24.4269H32.8417V25.7914H34.475V20.1339H34.4833ZM43 17.5464H41.2083L39.1333 24.2522H39.1L37.025 17.5464H35.1667L38.1583 25.808L38 26.3072C37.7333 27.1558 37.2917 27.4886 36.5083 27.4886C36.3667 27.4886 36.1 27.472 35.9917 27.4636V28.8281C36.0917 28.8614 36.5333 28.8697 36.6667 28.8697C38.3917 28.8697 39.2 28.2124 39.9083 26.224L43 17.5464Z" fill="#CA9F14"/>
</svg>
