<svg width="37" height="37" viewBox="0 0 37 37" fill="none" xmlns="http://www.w3.org/2000/svg">
<rect width="37" height="37" rx="18.5" fill="#CA9F14"/>
<path d="M18.5 29C24.299 29 29 24.299 29 18.5C29 12.701 24.299 8 18.5 8C12.701 8 8 12.701 8 18.5C8 24.299 12.701 29 18.5 29Z" stroke="white" stroke-width="1.5" stroke-miterlimit="10"/>
<path d="M18.5 19.45C19.0247 19.45 19.45 19.0247 19.45 18.5C19.45 17.9754 19.0247 17.55 18.5 17.55C17.9754 17.55 17.55 17.9754 17.55 18.5C17.55 19.0247 17.9754 19.45 18.5 19.45Z" stroke="white" stroke-width="1.5" stroke-miterlimit="10"/>
<path d="M18.5 10.8601V18.5001L23.27 23.2701" stroke="white" stroke-width="1.5" stroke-miterlimit="10"/>
</svg>
