<svg width="48" height="43" viewBox="0 0 48 43" fill="none" xmlns="http://www.w3.org/2000/svg">
<rect x="7" y="4" width="38" height="34" fill="white"/>
<path d="M25.1833 18.1704C25.1833 19.6014 24.3083 20.4251 22.7667 20.4251H20.7417V15.9158H22.775C24.3083 15.9158 25.1833 16.7311 25.1833 18.1704ZM29.1417 23.3786C29.1417 24.0692 29.7417 24.5184 30.6833 24.5184C31.8833 24.5184 32.7833 23.7613 32.7833 22.6964V22.0558L30.825 22.1806C29.7167 22.2554 29.1417 22.6631 29.1417 23.3786ZM48 6.57261V35.8583C48 38.0631 46.2083 39.8518 44 39.8518H4C1.79167 39.8518 0 38.0631 0 35.8583V6.57261C0 4.36786 1.79167 2.5791 4 2.5791H44C46.2083 2.5791 48 4.36786 48 6.57261ZM26.9833 18.1621C26.9833 15.949 25.4417 14.4348 23.2417 14.4348H18.975V25.783H20.7417V21.906H23.1833C25.4167 21.906 26.9833 20.3752 26.9833 18.1621ZM34.4833 20.1339C34.4833 18.4949 33.1667 17.4383 31.15 17.4383C29.275 17.4383 27.8917 18.5115 27.8417 19.9758H29.4333C29.5667 19.277 30.2167 18.8194 31.1 18.8194C32.1833 18.8194 32.7833 19.3186 32.7833 20.2504V20.8744L30.5833 21.0075C28.5333 21.1323 27.425 21.9726 27.425 23.4285C27.425 24.9011 28.5667 25.8746 30.2083 25.8746C31.3167 25.8746 32.3417 25.3171 32.8083 24.4269H32.8417V25.7914H34.475V20.1339H34.4833ZM43 17.5464H41.2083L39.1333 24.2522H39.1L37.025 17.5464H35.1667L38.1583 25.808L38 26.3072C37.7333 27.1558 37.2917 27.4886 36.5083 27.4886C36.3667 27.4886 36.1 27.472 35.9917 27.4636V28.8281C36.0917 28.8614 36.5333 28.8697 36.6667 28.8697C38.3917 28.8697 39.2 28.2124 39.9083 26.224L43 17.5464Z" fill="#CA9F14"/>
<path d="M10.1248 19.9157V22.224H13.4329C13.3662 22.5919 13.2234 22.9431 13.0129 23.2566C12.8025 23.57 12.5288 23.8392 12.2082 24.0482C11.6555 24.4147 10.9498 24.6234 10.1225 24.6234C8.52353 24.6234 7.17191 23.5653 6.687 22.149C6.43326 21.4038 6.43326 20.5998 6.687 19.8547C7.17191 18.43 8.52353 17.3718 10.1225 17.3718C10.5559 17.364 10.9866 17.4395 11.3896 17.594C11.7925 17.7485 12.1596 17.9788 12.4695 18.2716L14.2237 16.5582C13.1189 15.5442 11.6488 14.9855 10.1248 15.0003C8.98481 15.0045 7.86871 15.3165 6.90253 15.9009C5.93634 16.4854 5.15855 17.3191 4.65697 18.308C4.22491 19.1437 4 20.0649 4 20.999C4 21.9331 4.22491 22.8544 4.65697 23.6901V23.6985C5.15869 24.6867 5.93669 25.5197 6.90297 26.1031C7.86926 26.6866 8.98528 26.9972 10.1248 27C11.7742 27 13.1693 26.4667 14.1803 25.5501C15.339 24.5087 16 22.9676 16 21.1344C16.0007 20.7262 15.9668 20.3186 15.8986 19.9157H10.1248Z" fill="white"/>
</svg>
