<svg width="28" height="28" viewBox="0 0 28 28" fill="none" xmlns="http://www.w3.org/2000/svg">
<path d="M22.9133 10.6633C22.9133 18.4567 14 26.25 14 26.25C14 26.25 5.08667 18.4567 5.08667 10.6633C5.08667 8.29937 6.02575 6.03223 7.69733 4.36065C9.3689 2.68908 11.636 1.75 14 1.75C16.364 1.75 18.6311 2.68908 20.3027 4.36065C21.9743 6.03223 22.9133 8.29937 22.9133 10.6633Z" stroke="#CA9F14" stroke-width="1.5" stroke-miterlimit="10"/>
<path d="M14 14C15.8428 14 17.3367 12.5061 17.3367 10.6633C17.3367 8.82054 15.8428 7.32666 14 7.32666C12.1572 7.32666 10.6633 8.82054 10.6633 10.6633C10.6633 12.5061 12.1572 14 14 14Z" stroke="#CA9F14" stroke-width="1.5" stroke-miterlimit="10"/>
</svg>
