<svg width="48" height="43" viewBox="0 0 48 43" fill="none" xmlns="http://www.w3.org/2000/svg">
<rect x="3" y="4" width="42" height="34" fill="white"/>
<path d="M40.2417 34.1917C40.2417 34.7583 39.8583 35.1667 39.3083 35.1667C38.7417 35.1667 38.375 34.7333 38.375 34.1917C38.375 33.65 38.7417 33.2167 39.3083 33.2167C39.8583 33.2167 40.2417 33.65 40.2417 34.1917ZM14.3417 33.2167C13.75 33.2167 13.4083 33.65 13.4083 34.1917C13.4083 34.7333 13.75 35.1667 14.3417 35.1667C14.8833 35.1667 15.25 34.7583 15.25 34.1917C15.2417 33.65 14.8833 33.2167 14.3417 33.2167ZM24.1333 33.1917C23.6833 33.1917 23.4083 33.4833 23.3417 33.9167H24.9333C24.8583 33.4417 24.5667 33.1917 24.1333 33.1917ZM33.1167 33.2167C32.55 33.2167 32.2083 33.65 32.2083 34.1917C32.2083 34.7333 32.55 35.1667 33.1167 35.1667C33.6833 35.1667 34.05 34.7583 34.05 34.1917C34.05 33.65 33.6833 33.2167 33.1167 33.2167ZM41.9417 35.3917C41.9417 35.4167 41.9667 35.4333 41.9667 35.4833C41.9667 35.5083 41.9417 35.525 41.9417 35.575C41.9167 35.6 41.9167 35.6167 41.9 35.6417C41.875 35.6667 41.8583 35.6833 41.8083 35.6833C41.7833 35.7083 41.7667 35.7083 41.7167 35.7083C41.6917 35.7083 41.675 35.7083 41.625 35.6833C41.6 35.6833 41.5833 35.6583 41.5583 35.6417C41.5333 35.6167 41.5167 35.6 41.5167 35.575C41.4917 35.5333 41.4917 35.5083 41.4917 35.4833C41.4917 35.4417 41.4917 35.4167 41.5167 35.3917C41.5167 35.35 41.5417 35.325 41.5583 35.3C41.5833 35.275 41.6 35.275 41.625 35.2583C41.6667 35.2333 41.6917 35.2333 41.7167 35.2333C41.7583 35.2333 41.7833 35.2333 41.8083 35.2583C41.85 35.2833 41.875 35.2833 41.9 35.3C41.925 35.3167 41.9167 35.35 41.9417 35.3917ZM41.7583 35.5083C41.8 35.5083 41.8 35.4833 41.825 35.4833C41.85 35.4583 41.85 35.4417 41.85 35.4167C41.85 35.3917 41.85 35.375 41.825 35.35C41.8 35.35 41.7833 35.325 41.7333 35.325H41.6V35.6167H41.6667V35.5H41.6917L41.7833 35.6167H41.85L41.7583 35.5083ZM48 6.75V36.0833C48 38.2917 46.2083 40.0833 44 40.0833H4C1.79167 40.0833 0 38.2917 0 36.0833V6.75C0 4.54167 1.79167 2.75 4 2.75H44C46.2083 2.75 48 4.54167 48 6.75ZM5.33333 18.3833C5.33333 24.7583 10.5083 29.925 16.875 29.925C19.1417 29.925 21.3667 29.2417 23.25 28C17.175 23.0583 17.2167 13.7333 23.25 8.79167C21.3667 7.54167 19.1417 6.86667 16.875 6.86667C10.5083 6.85833 5.33333 12.0333 5.33333 18.3833ZM24 27.45C29.875 22.8667 29.85 13.9333 24 9.325C18.15 13.9333 18.125 22.875 24 27.45ZM12.1417 33.8083C12.1417 33.0833 11.6667 32.6083 10.9167 32.5833C10.5333 32.5833 10.125 32.7 9.85 33.125C9.65 32.7833 9.30833 32.5833 8.83333 32.5833C8.51667 32.5833 8.2 32.7 7.95 33.0333V32.6667H7.26667V35.725H7.95C7.95 34.15 7.74167 33.2083 8.7 33.2083C9.55 33.2083 9.38333 34.0583 9.38333 35.725H10.0417C10.0417 34.2 9.83333 33.2083 10.7917 33.2083C11.6417 33.2083 11.475 34.0417 11.475 35.725H12.1583V33.8083H12.1417ZM15.8833 32.6667H15.225V33.0333C15 32.7583 14.6833 32.5833 14.25 32.5833C13.3917 32.5833 12.7333 33.2667 12.7333 34.1917C12.7333 35.125 13.3917 35.8 14.25 35.8C14.6833 35.8 15 35.6417 15.225 35.35V35.7333H15.8833V32.6667ZM19.2583 34.8C19.2583 33.55 17.35 34.1167 17.35 33.5333C17.35 33.0583 18.3417 33.1333 18.8917 33.4417L19.1667 32.9C18.3833 32.3917 16.65 32.4 16.65 33.5833C16.65 34.775 18.5583 34.275 18.5583 34.8333C18.5583 35.3583 17.4333 35.3167 16.8333 34.9L16.5417 35.425C17.475 36.0583 19.2583 35.925 19.2583 34.8ZM22.2083 35.575L22.025 35.0083C21.7083 35.1833 21.0083 35.375 21.0083 34.6667V33.2833H22.1V32.6667H21.0083V31.7333H20.325V32.6667H19.6917V33.275H20.325V34.6667C20.325 36.1333 21.7667 35.8667 22.2083 35.575ZM23.3167 34.4583H25.6083C25.6083 33.1083 24.9917 32.575 24.1583 32.575C23.275 32.575 22.6417 33.2333 22.6417 34.1833C22.6417 35.8917 24.525 36.175 25.4583 35.3667L25.1417 34.8667C24.4917 35.4 23.5083 35.35 23.3167 34.4583ZM28.2417 32.6667C27.8583 32.5 27.275 32.5167 26.975 33.0333V32.6667H26.2917V35.725H26.975V34C26.975 33.0333 27.7667 33.1583 28.0417 33.3L28.2417 32.6667ZM29.125 34.1917C29.125 33.2417 30.0917 32.9333 30.85 33.4917L31.1667 32.95C30.2 32.1917 28.4417 32.6083 28.4417 34.2C28.4417 35.85 30.3083 36.1833 31.1667 35.45L30.85 34.9083C30.0833 35.45 29.125 35.125 29.125 34.1917ZM34.6833 32.6667H34V33.0333C33.3083 32.1167 31.5083 32.6333 31.5083 34.1917C31.5083 35.7917 33.375 36.25 34 35.35V35.7333H34.6833V32.6667ZM37.4917 32.6667C37.2917 32.5667 36.575 32.425 36.225 33.0333V32.6667H35.5667V35.725H36.225V34C36.225 33.0833 36.975 33.1417 37.2917 33.3L37.4917 32.6667ZM40.85 31.425H40.1917V33.0333C39.5083 32.125 37.7 32.6083 37.7 34.1917C37.7 35.8083 39.575 36.2417 40.1917 35.35V35.7333H40.85V31.425ZM41.4833 25.1667V25.55H41.55V25.1667H41.7083V25.1H41.325V25.1667H41.4833ZM42.0333 35.4833C42.0333 35.4417 42.0333 35.3917 42.0083 35.35C41.9833 35.325 41.9667 35.2833 41.9417 35.2583C41.9167 35.2333 41.875 35.2167 41.85 35.1917C41.8083 35.1917 41.7583 35.1667 41.7167 35.1667C41.6917 35.1667 41.65 35.1917 41.6 35.1917C41.5583 35.2167 41.5333 35.2333 41.5083 35.2583C41.4667 35.2833 41.4417 35.325 41.4417 35.35C41.4167 35.3917 41.4167 35.4417 41.4167 35.4833C41.4167 35.5083 41.4167 35.55 41.4417 35.6C41.4417 35.625 41.4667 35.6667 41.5083 35.6917C41.5333 35.7167 41.55 35.7333 41.6 35.7583C41.6417 35.7833 41.6917 35.7833 41.7167 35.7833C41.7583 35.7833 41.8083 35.7833 41.85 35.7583C41.875 35.7333 41.9167 35.7167 41.9417 35.6917C41.9667 35.6667 41.9833 35.625 42.0083 35.6C42.0333 35.55 42.0333 35.5083 42.0333 35.4833ZM42.3 25.0917H42.1833L42.05 25.3833L41.9167 25.0917H41.8V25.5417H41.8667V25.2L42 25.4917H42.0917L42.2083 25.2V25.5417H42.3V25.0917ZM42.6667 18.3833C42.6667 12.0333 37.4917 6.85833 31.125 6.85833C28.8583 6.85833 26.6333 7.54167 24.75 8.78333C30.7583 13.725 30.85 23.075 24.75 27.9917C26.6333 29.2417 28.875 29.9167 31.125 29.9167C37.4917 29.925 42.6667 24.7583 42.6667 18.3833Z" fill="#CA9F14"/>
</svg>
