<svg width="45" height="44" viewBox="0 0 45 44" fill="none" xmlns="http://www.w3.org/2000/svg">
<rect x="0.307617" width="44" height="44" rx="8" fill="#FFC2B8"/>
<path d="M29.2076 12.73C28.1822 11.5594 27.6172 10.0561 27.6176 8.5H22.9826V27.1C22.9469 28.1065 22.5219 29.0599 21.7973 29.7594C21.0726 30.4589 20.1048 30.8499 19.0976 30.85C16.9676 30.85 15.1976 29.11 15.1976 26.95C15.1976 24.37 17.6876 22.435 20.2526 23.23V18.49C15.0776 17.8 10.5476 21.82 10.5476 26.95C10.5476 31.945 14.6876 35.5 19.0826 35.5C23.7926 35.5 27.6176 31.675 27.6176 26.95V17.515C29.4971 18.8648 31.7537 19.589 34.0676 19.585V14.95C34.0676 14.95 31.2476 15.085 29.2076 12.73Z" fill="#8D2210"/>
</svg>
