<svg width="37" height="37" viewBox="0 0 37 37" fill="none" xmlns="http://www.w3.org/2000/svg">
<rect width="36.9994" height="36.9996" rx="18.4997" fill="#CA9F14"/>
<path d="M19.9294 14.3999C20.6368 14.4025 21.3144 14.6847 21.8145 15.1848C22.3147 15.685 22.5968 16.3626 22.5994 17.0699" stroke="white" stroke-width="1.5" stroke-miterlimit="10"/>
<path d="M19.9294 11.2C21.4863 11.2 22.9793 11.8184 24.0802 12.9192C25.181 14.0201 25.7994 15.5131 25.7994 17.07" stroke="white" stroke-width="1.5" stroke-miterlimit="10"/>
<path d="M19.9294 8C22.335 8 24.6419 8.95559 26.3429 10.6565C28.0439 12.3575 28.9994 14.6645 28.9994 17.07" stroke="white" stroke-width="1.5" stroke-miterlimit="10"/>
<path d="M25.2495 27.8801C22.8195 30.3001 17.2495 28.6701 12.7895 24.2101C8.32947 19.7501 6.69947 14.1801 9.11947 11.7501L11.7795 9.09009L16.9095 14.2201L14.9895 16.1601C14.6035 16.548 14.3869 17.0729 14.3869 17.6201C14.3869 18.1673 14.6035 18.6922 14.9895 19.0801L17.9195 22.0101C18.3074 22.396 18.8323 22.6127 19.3795 22.6127C19.9267 22.6127 20.4516 22.396 20.8395 22.0101L22.7795 20.0901L27.9095 25.2201L25.2495 27.8801Z" stroke="white" stroke-width="1.5" stroke-miterlimit="10"/>
</svg>
