<svg width="45" height="44" viewBox="0 0 45 44" fill="none" xmlns="http://www.w3.org/2000/svg">
<rect x="0.307617" width="44" height="44" rx="8" fill="#FFC2B8"/>
<g clip-path="url(#clip0_54_463)">
<path d="M16.3596 35.9999C28.4356 35.9999 35.0416 25.9939 35.0416 17.3319C35.0416 17.0519 35.0416 16.7679 35.0296 16.4879C36.3157 15.5569 37.4257 14.4042 38.3076 13.0839C37.1062 13.6136 35.8331 13.9627 34.5296 14.1199C35.9027 13.2992 36.9311 12.0079 37.4236 10.4859C36.1336 11.2502 34.7216 11.7867 33.2496 12.0719C32.26 11.018 30.9504 10.3198 29.5238 10.0854C28.0972 9.85112 26.6331 10.0938 25.3583 10.7758C24.0835 11.4578 23.0692 12.5412 22.4725 13.858C21.8758 15.1749 21.73 16.6518 22.0576 18.0599C19.4471 17.929 16.8932 17.2509 14.5617 16.0694C12.2302 14.888 10.173 13.2296 8.52362 11.2019C7.6863 12.6481 7.43076 14.3587 7.80891 15.9865C8.18705 17.6142 9.17053 19.037 10.5596 19.9659C9.5187 19.9306 8.50066 19.651 7.58762 19.1499V19.2399C7.58941 20.7549 8.11423 22.2228 9.07336 23.3954C10.0325 24.5681 11.3671 25.3737 12.8516 25.6759C12.2881 25.8312 11.7061 25.9085 11.1216 25.9059C10.7096 25.9072 10.2984 25.869 9.89362 25.7919C10.3132 27.096 11.1302 28.2363 12.2301 29.0529C13.3301 29.8695 14.6579 30.3216 16.0276 30.3459C13.7007 32.1735 10.8264 33.1647 7.86762 33.1599C7.34626 33.1621 6.82526 33.1321 6.30762 33.0699C9.31065 34.9844 12.7982 36.001 16.3596 35.9999Z" fill="#8D2210"/>
</g>
<defs>
<clipPath id="clip0_54_463">
<rect width="32" height="32" fill="white" transform="translate(6.30762 6)"/>
</clipPath>
</defs>
</svg>
