<svg width="45" height="54" viewBox="0 0 45 54" fill="none" xmlns="http://www.w3.org/2000/svg">
<rect x="0.307617" width="44" height="44" rx="8" fill="#FFC2B8"/>
<path d="M32.0275 19.4759C32.0595 15.6199 28.7755 12.0853 24.7075 11.5959C24.6196 11.585 24.532 11.5716 24.4448 11.5559C24.2403 11.5168 24.033 11.4945 23.8248 11.4893C22.9902 11.4893 22.7675 12.0759 22.7088 12.4239C22.6515 12.7639 22.7062 13.0506 22.8702 13.2733C23.1462 13.6479 23.6328 13.7146 24.0235 13.7679C24.1368 13.7839 24.2448 13.7986 24.3355 13.8186C27.9915 14.6359 29.2222 15.9199 29.8235 19.5453C29.8382 19.6333 29.8448 19.7426 29.8528 19.8586C29.8795 20.2919 29.9328 21.1933 30.9022 21.1933C30.9822 21.1933 31.0702 21.1866 31.1608 21.1733C32.0622 21.0359 32.0342 20.2119 32.0208 19.8159C32.0168 19.7039 32.0128 19.5986 32.0235 19.5279C32.0256 19.5102 32.0265 19.4924 32.0262 19.4746L32.0275 19.4759Z" fill="#8D2210"/>
<path d="M23.5875 10.1813C23.6969 10.1893 23.7982 10.1973 23.8835 10.2093C29.8875 11.1333 32.6489 13.9773 33.4129 20.028C33.4262 20.1307 33.4289 20.256 33.4302 20.388C33.4382 20.8613 33.4542 21.8453 34.5102 21.8653H34.5422C34.8742 21.8653 35.1369 21.7653 35.3262 21.568C35.6542 21.2253 35.6329 20.7147 35.6129 20.304C35.6089 20.2027 35.6049 20.108 35.6049 20.024C35.6822 13.8373 30.3249 8.22533 24.1435 8.01733C24.1169 8.01733 24.0929 8.01733 24.0689 8.02133C24.0446 8.0244 24.0201 8.02574 23.9955 8.02533C23.9329 8.02533 23.8582 8.02 23.7769 8.01467C23.6809 8.008 23.5702 8 23.4569 8C22.4729 8 22.2862 8.7 22.2622 9.11733C22.2075 10.0813 23.1395 10.1493 23.5875 10.1813ZM33.1235 27.848C32.9947 27.7501 32.8672 27.6505 32.7409 27.5493C32.0849 27.0213 31.3876 26.536 30.7142 26.0653L30.2942 25.772C29.4302 25.1653 28.6542 24.8707 27.9209 24.8707C26.9315 24.8707 26.0702 25.4173 25.3582 26.4933C25.0435 26.9707 24.6609 27.2027 24.1902 27.2027C23.8633 27.1912 23.5425 27.1108 23.2489 26.9667C20.4622 25.7027 18.4702 23.764 17.3315 21.2053C16.7809 19.968 16.9595 19.16 17.9275 18.5013C18.4782 18.128 19.5009 17.4333 19.4302 16.1013C19.3475 14.5907 16.0129 10.0427 14.6075 9.52667C14.0068 9.30752 13.3482 9.30563 12.7462 9.52133C11.1315 10.064 9.97421 11.0187 9.39421 12.2787C8.83421 13.4973 8.86088 14.928 9.46621 16.416C11.2195 20.7187 13.6835 24.4707 16.7915 27.5667C19.8329 30.5973 23.5715 33.0787 27.9022 34.944C28.2929 35.112 28.7022 35.204 29.0022 35.2707C29.1035 35.2933 29.1915 35.3133 29.2556 35.3307C29.2908 35.3402 29.3271 35.3451 29.3635 35.3453H29.3982C31.4355 35.3453 33.8822 33.484 34.6329 31.3627C35.2915 29.504 34.0889 28.5853 33.1235 27.848ZM24.4889 15.0973C24.1409 15.1053 23.4142 15.124 23.1595 15.8627C23.0395 16.2093 23.0542 16.508 23.2022 16.7547C23.4182 17.1147 23.8329 17.2267 24.2089 17.288C25.5755 17.5067 26.2782 18.2613 26.4182 19.6653C26.4835 20.3187 26.9249 20.776 27.4889 20.776C27.5317 20.7759 27.5744 20.7733 27.6169 20.768C28.2969 20.688 28.6262 20.188 28.5969 19.2827C28.6075 18.3387 28.1142 17.2667 27.2729 16.4133C26.4302 15.5573 25.4142 15.0747 24.4889 15.0973Z" fill="#8D2210"/>
<path d="M8.30762 54L19.8076 44H8.30762V54Z" fill="#FFC2B8"/>
</svg>
