<svg width="48" height="43" viewBox="0 0 48 43" fill="none" xmlns="http://www.w3.org/2000/svg">
<rect x="3" y="4" width="42" height="34" fill="white"/>
<path d="M39.175 19.2751C39.175 19.2751 39.8083 22.3751 39.95 23.0251H37.1667C37.4417 22.2834 38.5 19.4001 38.5 19.4001C38.4833 19.4251 38.775 18.6417 38.9417 18.1584L39.175 19.2751ZM48 6.66675V36.0001C48 38.2084 46.2083 40.0001 44 40.0001H4C1.79167 40.0001 0 38.2084 0 36.0001V6.66675C0 4.45841 1.79167 2.66675 4 2.66675H44C46.2083 2.66675 48 4.45841 48 6.66675ZM12.7083 27.6001L17.975 14.6667H14.4333L11.1583 23.5001L10.8 21.7084L9.63333 15.7584C9.44167 14.9334 8.85 14.7001 8.11667 14.6667H2.725L2.66667 14.9251C3.98333 15.2584 5.15833 15.7417 6.18333 16.3501L9.16667 27.6001H12.7083ZM20.575 27.6167L22.675 14.6667H19.325L17.2333 27.6167H20.575ZM32.2333 23.3834C32.25 21.9084 31.35 20.7834 29.425 19.8584C28.25 19.2667 27.5333 18.8667 27.5333 18.2584C27.55 17.7084 28.1417 17.1417 29.4583 17.1417C30.55 17.1167 31.35 17.3751 31.95 17.6334L32.25 17.7751L32.7083 14.9751C32.05 14.7167 31 14.4251 29.7083 14.4251C26.4 14.4251 24.075 16.1917 24.0583 18.7084C24.0333 20.5667 25.725 21.6001 26.9917 22.2251C28.2833 22.8584 28.725 23.2751 28.725 23.8334C28.7083 24.7001 27.675 25.1001 26.7167 25.1001C25.3833 25.1001 24.6667 24.8917 23.575 24.4084L23.1333 24.2001L22.6667 27.1084C23.45 27.4667 24.9 27.7834 26.4 27.8001C29.9167 27.8084 32.2083 26.0667 32.2333 23.3834ZM44 27.6167L41.3 14.6667H38.7083C37.9083 14.6667 37.3 14.9001 36.9583 15.7417L31.9833 27.6167H35.5C35.5 27.6167 36.075 26.0167 36.2 25.6751H40.5C40.6 26.1334 40.9 27.6167 40.9 27.6167H44Z" fill="#CA9F14"/>
</svg>
